<?xml version="1.0" encoding="utf-8"?>
<!-- Generator: Adobe Illustrator 21.0.0, SVG Export Plug-In . SVG Version: 6.00 Build 0)  -->
<svg version="1.1" id="Capa_1" xmlns="http://www.w3.org/2000/svg" xmlns:xlink="http://www.w3.org/1999/xlink" x="0px" y="0px"
	 viewBox="0 0 612 612" style="enable-background:new 0 0 612 612;" xml:space="preserve">
<style type="text/css">
	.st0{fill:#867502;enable-background:new    ;}
</style>
<path class="st0" d="M306,0C137.3,0,0,137.4,0,306c0,92.9,42.1,176.4,107.7,232.6c0.8,0.8,1.6,1.6,3.1,2.3
	c53.1,44.5,121,71.1,196,71.1c73.4,0,141.3-26.5,194.4-69.5c3.1-0.8,5.5-3.1,7-5.5c63.3-57,103.9-138.9,103.9-231
	C612,137.4,474.6,0,306,0z M212.4,284.9c0-51.5,42.1-93.7,93.7-93.7s93.7,42.1,93.7,93.7s-42.1,93.7-93.7,93.7
	S212.4,336.5,212.4,284.9z M306.9,583.9c-66.4,0.1-126.6-22.6-174.2-60.9c1.6-22.6,14-99.2,98.4-142.1c21.1,16.4,46.8,25.7,75,25.7
	s54.6-10.1,75.8-26.5c83.6,42.9,96.8,117.9,99.2,142.1C433.3,560.5,372.5,583.9,306.9,583.9z"/>
</svg>
