<?xml version="1.0" encoding="utf-8"?>
<!-- Generator: Adobe Illustrator 21.0.0, SVG Export Plug-In . SVG Version: 6.00 Build 0)  -->
<svg version="1.1" id="Слой_1" xmlns="http://www.w3.org/2000/svg" xmlns:xlink="http://www.w3.org/1999/xlink" x="0px" y="0px"
	 viewBox="0 0 340 225" style="enable-background:new 0 0 340 225;" xml:space="preserve">
<style type="text/css">
	.st0{opacity:0.2;}
	.st1{fill:#FFFFFF;}
</style>
<g class="st0">
	<path d="M6,224.5c-3,0-5.5-2.5-5.5-5.5V6C0.5,3,3,0.5,6,0.5h303.9c1.2,1.2,6.1,16.4,16.1,55.8c6.9,27.2,13.5,54.7,13.5,56.2
		c0,1.5-6.5,29.1-13.5,56.2c-10,39.3-14.9,54.6-16.1,55.8L6,224.5z"/>
	<path class="st1" d="M309.6,1c1.4,2.1,6.3,17.8,16,55.8c7,27.4,13.3,54,13.4,55.7c-0.1,1.8-6.4,28.4-13.4,55.8
		c-9.7,38-14.6,53.6-16,55.8L6,224c-2.8,0-5-2.2-5-5V6c0-2.8,2.2-5,5-5L309.6,1 M310,0L6,0C2.7,0,0,2.7,0,6v213c0,3.3,2.7,6,6,6
		l304,0c3.3,0,30-109.2,30-112.5C340,109.2,313.3,0,310,0L310,0z"/>
</g>
</svg>
