<?xml version="1.0" encoding="utf-8"?>
<!-- Generator: Adobe Illustrator 21.0.0, SVG Export Plug-In . SVG Version: 6.00 Build 0)  -->
<svg version="1.1" id="Слой_1" xmlns="http://www.w3.org/2000/svg" xmlns:xlink="http://www.w3.org/1999/xlink" x="0px" y="0px"
	 viewBox="0 0 80 80" style="enable-background:new 0 0 80 80;" xml:space="preserve">
<style type="text/css">
	.st0{fill-rule:evenodd;clip-rule:evenodd;}
	.st1{fill-rule:evenodd;clip-rule:evenodd;fill:none;}
</style>
<g>
	<path class="st0" d="M23,23.1c1-1.1,2.1-2.2,3.1-3.3c2.2-2.3,4.4-4.5,6.7-6.7c2.4-2.3,5.2-3,8.4-2c3.2,1,4.9,3.4,5.3,6.6
		c0.1,1,0,2,0,2.9c5.4,0.3,9.2,5.1,7.4,10.9c4.7,1.4,6.2,2.7,7.3,6.7c0.2-0.2,0.5-0.3,0.6-0.5c1.3-1.3,2.5-2.6,3.9-3.8
		c3.2-3,8-3,11.2,0.1c3,3,3.2,7.9,0.2,11c-6.4,6.5-12.8,13.1-19.6,19.2c-6.4,5.8-13.8,10-22.2,12.4c-12.2,3.5-25.2-2.4-31.3-14
		c-4-7.6-4.7-15.5-1.8-23.5C5.5,30.2,7,21,6.7,11.6c0-1.1,0-2.3,0.3-3.4c1-3.8,4.7-6.3,8.6-5.8c3.9,0.5,7,3.9,7,7.8
		c0.1,4,0,8,0,12.1c0,0.2,0,0.4,0,0.6C22.8,23,22.9,23,23,23.1z M19.4,31.2c0-0.7,0-1,0-1.3c0-2.9,0-5.8,0-8.8c0-3.7,0-7.3-0.1-11
		c-0.1-2.3-1.9-4.1-4.1-4.3c-2.4-0.2-4.4,1.2-5,3.4c-0.2,0.6-0.2,1.3-0.1,2C10.3,21,9,30.6,5.6,39.9c-2.4,6.5-2.1,13,0.6,19.3
		c5.1,12.1,18.4,18,30.5,13.6c6.9-2.5,13.2-6.2,18.8-11c1.5-1.3,2.9-2.6,4.3-4c4.9-4.9,9.8-9.8,14.7-14.6c1.8-1.8,2.1-4.4,0.7-6.3
		c-1.8-2.4-5-2.6-7.3-0.4C62.1,42.2,56.4,48,50.7,53.7c-0.3,0.3-0.5,0.6-0.9,0.8c-0.7,0.4-1.4,0.4-2-0.2c-0.6-0.6-0.7-1.4-0.2-2.1
		c0.2-0.3,0.5-0.5,0.7-0.8c2.8-2.8,5.6-5.5,8.3-8.3c1.9-2,1.9-4.9,0.1-6.7c-1.8-1.8-4.8-1.8-6.7,0.1c-2,1.9-3.9,3.9-5.8,5.8
		c-0.2,0.2-0.4,0.4-0.6,0.6c-0.8,0.6-1.7,0.6-2.3-0.1c-0.6-0.6-0.6-1.6,0-2.3c0.2-0.2,0.4-0.4,0.6-0.6c2.6-2.6,5.2-5.2,7.8-7.8
		c2.5-2.6,1.7-6.6-1.6-7.8c-1.9-0.7-3.6-0.2-5,1.2c-2.7,2.7-5.3,5.4-8,8c-0.4,0.4-1.1,0.8-1.6,0.8c-0.5,0-1.1-0.5-1.4-1
		c-0.4-0.7-0.1-1.4,0.5-1.9c3-3,6-6,9-9c0.5-0.5,0.9-1,1.2-1.6c1.6-3.1-0.3-6.6-3.7-6.8c-1.6-0.1-2.9,0.5-4,1.6
		c-4.8,4.8-9.7,9.7-14.5,14.5C20.2,30.4,19.9,30.7,19.4,31.2z"/>
	<path class="st1" d="M19.4,31.2c0.5-0.5,0.8-0.7,1.1-1c4.8-4.8,9.7-9.7,14.5-14.5c1.1-1.1,2.4-1.7,4-1.6c3.4,0.2,5.4,3.7,3.7,6.8
		c-0.3,0.6-0.8,1.1-1.2,1.6c-3,3-6,6-9,9c-0.6,0.6-0.8,1.3-0.5,1.9c0.3,0.5,0.9,1,1.4,1c0.5,0,1.2-0.4,1.6-0.8c2.7-2.6,5.4-5.3,8-8
		c1.4-1.4,3.1-1.9,5-1.2c3.3,1.2,4.2,5.2,1.6,7.8c-2.6,2.6-5.2,5.2-7.8,7.8c-0.2,0.2-0.4,0.4-0.6,0.6c-0.6,0.7-0.6,1.7,0,2.3
		c0.6,0.7,1.5,0.7,2.3,0.1c0.2-0.2,0.4-0.4,0.6-0.6c1.9-1.9,3.9-3.9,5.8-5.8c1.9-1.9,4.9-1.9,6.7-0.1c1.9,1.8,1.9,4.7-0.1,6.7
		c-2.7,2.8-5.5,5.5-8.3,8.3c-0.3,0.3-0.5,0.5-0.7,0.8c-0.5,0.7-0.5,1.5,0.2,2.1c0.6,0.6,1.3,0.6,2,0.2c0.3-0.2,0.6-0.5,0.9-0.8
		c5.7-5.7,11.4-11.4,17.2-17.1c2.2-2.2,5.5-2,7.3,0.4c1.4,1.9,1.1,4.4-0.7,6.3c-4.9,4.9-9.8,9.8-14.7,14.6c-1.4,1.4-2.8,2.7-4.3,4
		c-5.6,4.8-11.9,8.5-18.8,11c-12.1,4.4-25.3-1.5-30.5-13.6c-2.7-6.4-3-12.9-0.6-19.3C9,30.6,10.3,21,10.1,11.2c0-0.7,0-1.4,0.1-2
		c0.6-2.3,2.6-3.6,5-3.4c2.2,0.2,4.1,2,4.1,4.3c0.1,3.7,0.1,7.3,0.1,11c0,2.9,0,5.8,0,8.8C19.4,30.2,19.4,30.5,19.4,31.2z"/>
</g>
</svg>
