<?xml version="1.0" encoding="utf-8"?>
<!-- Generator: Adobe Illustrator 21.0.0, SVG Export Plug-In . SVG Version: 6.00 Build 0)  -->
<svg version="1.1" id="Слой_1" xmlns="http://www.w3.org/2000/svg" xmlns:xlink="http://www.w3.org/1999/xlink" x="0px" y="0px"
	 viewBox="0 0 220 82" style="enable-background:new 0 0 220 82;" xml:space="preserve">
<style type="text/css">
	.st0{fill:#74D36C;}
	.st1{clip-path:url(#SVGID_2_);}
	.st2{fill:#60AA48;}
	.st3{fill:#70BF67;}
	.st4{opacity:0.7;fill:#74D36C;}
	.st5{opacity:0.5;fill:#7FDD57;}
	.st6{clip-path:url(#SVGID_4_);}
	.st7{fill:#A84848;}
	.st8{fill:#D16D6D;}
	.st9{fill:#FFFFFF;}
</style>
<g>
	<g>
		<polygon class="st0" points="30.3,56.7 24.4,42.7 17.8,56.7 		"/>
		<g>
			<defs>
				<path id="SVGID_1_" d="M46.5,33.3c3.9-9.5,1.3-21.9-8.9-28.3c-8.5-5.7-20-5.3-28.1,1.1C1.3,12.4-2.5,23.9,1.7,33.3
					C5,40.6,8.4,47.9,12,55.3l7.7-16.2c-6-2-10.4-7.7-10.4-14.4c0-8.4,6.8-15.2,15.2-15.2s15.2,6.8,15.2,15.2
					c0,6.7-4.3,12.4-10.4,14.4l7.1,16.5"/>
			</defs>
			<clipPath id="SVGID_2_">
				<use xlink:href="#SVGID_1_"  style="overflow:visible;"/>
			</clipPath>
			<g class="st1">
				<polygon class="st2" points="17.3,82.8 24.1,71 30.9,82.8 				"/>
				<polygon class="st3" points="37.7,71 30.9,82.8 24.1,71 				"/>
				<polygon class="st0" points="24.1,71 30.9,59.2 37.7,71 				"/>
				<polygon class="st3" points="24.1,71 17.3,82.8 10.5,71 				"/>
				<polygon class="st2" points="10.5,71 17.3,59.2 24.1,71 				"/>
				<polygon class="st2" points="12,55.3 8.2,47.5 10.5,47.5 15.7,47.5 				"/>
				<polygon class="st3" points="40,47.5 36.4,55.7 32.8,47.5 				"/>
				<polygon class="st0" points="24.1,47.5 31.7,35.7 40,47.5 				"/>
				<polygon class="st0" points="8.2,47.5 17.3,35.7 25.9,47.5 				"/>
				<polygon class="st4" points="45.4,35.7 40,47.5 37.7,47.5 30.9,35.7 				"/>
				<polygon class="st3" points="30.9,35.7 37.7,23.9 45.4,35.7 				"/>
				<polygon class="st4" points="17.3,35.7 10.5,47.5 8.2,47.5 2.8,35.7 				"/>
				<polygon class="st0" points="2.8,35.7 10.5,23.9 17.3,35.7 				"/>
				<polygon class="st4" points="51.3,23.9 45.4,35.7 45.4,35.7 37.7,23.9 				"/>
				<polygon class="st0" points="37.7,23.9 44.6,12.1 45.4,13.4 52,23.9 				"/>
				<polygon class="st5" points="10.5,23.9 2.8,35.7 2.8,35.7 -3.2,23.9 				"/>
				<polygon class="st0" points="-3.2,23.9 3.6,12.1 10.5,23.9 				"/>
				<polygon class="st4" points="44.6,12.1 37.8,23.9 31,12.1 				"/>
				<polygon class="st0" points="30.5,12.1 37.7,0.3 44.9,12.1 				"/>
				<polygon class="st0" points="17.3,12.1 24.1,0.3 30.9,12.1 				"/>
				<polygon class="st3" points="17.3,12.1 10.5,23.9 3.6,12.1 				"/>
				<polygon class="st0" points="3.6,12.1 10.5,0.3 17.3,12.1 				"/>
				<polygon class="st4" points="37.7,0.3 30.9,12.1 24.1,0.3 				"/>
				<polygon class="st3" points="24.1,0.3 17.3,12.1 10.5,0.3 				"/>
				<polygon class="st0" points="17.3,82.8 24.1,94.6 30.9,82.8 				"/>
			</g>
		</g>
		<g>
			<defs>
				<path id="SVGID_3_" d="M33,62.5l-17.5,0l0,0c2.9,6,5.9,12.1,8.9,18.5c3-6.5,5.8-12.5,8.6-18.3L33,62.5z"/>
			</defs>
			<clipPath id="SVGID_4_">
				<use xlink:href="#SVGID_3_"  style="overflow:visible;"/>
			</clipPath>
			<g class="st6">
				<polygon class="st7" points="33,62.5 24.3,62.6 24.3,62.6 24.3,62.6 24.3,62.6 15.5,62.6 19.5,70.8 18.1,73.2 30.4,73.2 
					29.1,70.9 				"/>
				<polygon class="st8" points="19.3,70.4 24.3,81 29.3,70.4 				"/>
			</g>
		</g>
	</g>
	<g>
		<g>
			<path class="st9" d="M93.7,51.3l2.7,5.4h0.3v-5.4h0.7v5.4h0.3l2.7-5.4h0.8l-2.9,5.4c1.4,0.2,1.9,1.5,2.2,2.9
				c0.2,1.1,0.4,2.1,0.7,3.1h-0.8c-0.3-0.6-0.5-2.3-0.7-3c-0.3-1.4-0.7-2.6-2.3-2.6h-0.2v5.6h-0.7v-5.6h-0.2c-1.6,0-2,1.2-2.3,2.6
				c-0.2,0.7-0.4,2.3-0.7,3h-0.7c0.4-1,0.5-2.1,0.7-3.1c0.3-1.4,0.8-2.7,2.2-2.9l-2.9-5.4H93.7z"/>
			<path class="st9" d="M104.1,54.6V58c0,1.4,0,2.4-0.1,4h0c0.4-1.2,1-2.5,1.4-3.7l1.4-3.8h0.9v8.1h-0.7v-3.2c0-1.8,0-2.8,0.1-4.2h0
				c-0.3,1.1-0.7,2.2-1.1,3.1c-0.3,0.7-1.1,2.7-1.8,4.3h-0.9v-8.1H104.1z"/>
			<path class="st9" d="M114.6,54.6v8.1h-0.7v-7.5h-2.2v3.1c0,2.4-0.1,3.8-1.2,4.3c-0.2,0.1-0.4,0.2-0.7,0.2l-0.2-0.6
				c0.3,0,0.5-0.1,0.7-0.3c0.6-0.5,0.7-1.7,0.7-3.6v-3.8H114.6z"/>
			<path class="st9" d="M119.4,62.8c-1.2,0-2.4-1.2-2.4-4.2c0-3,1.2-4.2,2.5-4.2c1.2,0,2.3,1.2,2.3,4.2
				C121.8,61.6,120.6,62.8,119.4,62.8L119.4,62.8z M119.4,62.2c1.4,0,1.6-2.2,1.6-3.6c0-1.3-0.3-3.6-1.7-3.6c-1.4,0-1.6,2.2-1.6,3.6
				C117.8,60,118,62.2,119.4,62.2L119.4,62.2z"/>
			<path class="st9" d="M125,54.6V58c0,1.4,0,2.4-0.1,4h0c0.4-1.2,1-2.5,1.4-3.7l1.4-3.8h0.9v8.1H128v-3.2c0-1.8,0-2.8,0.1-4.2h0
				c-0.3,1.1-0.7,2.2-1.1,3.1c-0.3,0.7-1.1,2.7-1.8,4.3h-0.9v-8.1H125z M125.3,51.5c0.1,0.8,0.4,1.2,1.2,1.2c0.7,0,1-0.5,1.1-1.2
				h0.6c-0.2,1.4-0.9,1.7-1.8,1.7c-0.9,0-1.6-0.4-1.8-1.7H125.3z"/>
			<path class="st9" d="M135.7,54.6v3.7h0.2l2.6-3.7h0.9l-2.8,3.8c1.3,0.1,2,1.1,2.3,2.3c0.2,0.7,0.4,1.4,0.6,2.1h-0.8
				c-0.2-0.5-0.4-1.2-0.6-1.9c-0.4-1.3-0.9-2-2.3-2h-0.1v3.9H135v-8.1H135.7z"/>
			<path class="st9" d="M143.5,62.8c-1.2,0-2.4-1.2-2.4-4.2c0-3,1.2-4.2,2.5-4.2c1.2,0,2.3,1.2,2.3,4.2
				C146,61.6,144.8,62.8,143.5,62.8L143.5,62.8z M143.6,62.2c1.4,0,1.6-2.2,1.6-3.6c0-1.3-0.3-3.6-1.7-3.6c-1.4,0-1.6,2.2-1.6,3.6
				C141.9,60,142.2,62.2,143.6,62.2L143.6,62.2z"/>
			<path class="st9" d="M148.7,54.6h0.8l1.4,4.2c0.4,1.1,0.6,1.8,0.8,2.7h0c0.3-1.1,0.5-1.6,0.8-2.7l1.3-4.2h0.8l0.6,8.1h-0.7
				l-0.2-3.9c-0.1-1.3-0.1-2-0.1-3.4h-0.1c-0.2,0.9-0.5,1.8-0.9,3l-1.4,4.3h-0.4l-1.3-4.1c-0.4-1.3-0.7-2.2-0.9-3.2h-0.1
				c0,1.1-0.1,2.1-0.1,3.5l-0.2,3.8h-0.7L148.7,54.6z"/>
			<path class="st9" d="M162.1,54.6v8.1h-0.7v-7.5h-2.7v7.5h-0.7v-8.1H162.1z"/>
			<path class="st9" d="M168.9,54.6v8.1h-0.7v-7.5H166v3.1c0,2.4-0.1,3.8-1.2,4.3c-0.2,0.1-0.4,0.2-0.7,0.2l-0.2-0.6
				c0.3,0,0.5-0.1,0.7-0.3c0.6-0.5,0.7-1.7,0.7-3.6v-3.8H168.9z"/>
			<path class="st9" d="M172.1,58.3c0,3.3,1.1,3.8,2.1,3.8c0.5,0,1-0.1,1.2-0.3l0.2,0.6c-0.4,0.3-1,0.4-1.5,0.4
				c-1.8,0-2.7-1.7-2.7-4.1c0-2.6,0.9-4.2,2.4-4.2c1.6,0,2.1,2,2.1,3.4c0,0.2,0,0.3,0,0.5H172.1z M175,57.7c0-2-0.8-2.7-1.4-2.7
				c-1,0-1.5,1.4-1.5,2.7H175z"/>
			<path class="st9" d="M178.9,54.6v3.7h0.2l2.6-3.7h0.9l-2.8,3.8c1.3,0.1,2,1.1,2.3,2.3c0.2,0.7,0.4,1.4,0.6,2.1h-0.8
				c-0.2-0.5-0.4-1.2-0.6-1.9c-0.4-1.3-0.9-2-2.3-2h-0.1v3.9h-0.7v-8.1H178.9z"/>
			<path class="st9" d="M188.3,62.5c-0.3,0.2-0.8,0.3-1.3,0.3c-1.6,0-2.7-1.4-2.7-4.2c0-2.2,1-4.2,2.9-4.2c0.4,0,0.9,0.1,1.1,0.3
				l-0.2,0.6c-0.2-0.1-0.5-0.3-1-0.3c-1.5,0-2,1.9-2,3.6c0,2.2,0.8,3.5,2.1,3.5c0.4,0,0.7-0.1,1-0.3L188.3,62.5z"/>
		</g>
		<path class="st9" d="M62.1,45.3h5.3l1.4-3h7.9l1.4,3h5.4L72.9,25.4L62.1,45.3z M75,38.7h-4.6l2.3-5L75,38.7z"/>
		<polygon class="st9" points="96.4,25.4 85.6,45.3 90.9,45.3 96.2,33.7 101.6,45.3 107,45.3 		"/>
		<path class="st9" d="M121.1,25.9l-1.3,3.8h-6.5v15.4h-4.3V25.9H121.1z"/>
		<path class="st9" d="M142.1,35.5c0,5.7-4.4,10.2-10,10.2c-5.7,0-10-4.4-10-10.3c0-5.6,4.5-10,10-10
			C137.8,25.3,142.1,29.8,142.1,35.5z M126.8,35.5c0,3.8,2.1,6.3,5.4,6.3c3.2,0,5.3-2.5,5.3-6.2s-2.1-6.2-5.3-6.2
			C129,29.4,126.8,31.9,126.8,35.5z"/>
		<path class="st9" d="M145.6,25.9h4.1c3.6,0,5.1,0.3,6.7,1.4c1.7,1.1,2.7,3,2.7,5.2c0,4-3.1,6.5-8,6.5h-1.1v6h-4.3V25.9z M151,35.3
			c2.2,0,3.5-1.1,3.5-2.8c0-1.7-1.3-2.7-3.5-2.7h-1.1v5.5H151z"/>
		<path class="st9" d="M174.6,45.1V34.7l-12.1,10.4V25.9h4.3v10.1L179,25.9v19.2H174.6z"/>
		<path class="st9" d="M202.3,25.9l6.3,12l6.3-12l5.1,19.2h-4.5l-2-8.7l-5,8.7l-4.9-8.7l-2.3,8.7h-3.9L202.3,25.9z"/>
		<polygon class="st9" points="182.8,25.9 182.8,29.7 188.4,29.7 188.4,45.1 192.9,45.1 192.9,29.7 197.3,29.7 198.3,25.9 		"/>
	</g>
</g>
</svg>
